<?xml version="1.0" standalone="no"?>
<!DOCTYPE svg PUBLIC "-//W3C//DTD SVG 20010904//EN"
 "http://www.w3.org/TR/2001/REC-SVG-20010904/DTD/svg10.dtd">
<svg version="1.0" xmlns="http://www.w3.org/2000/svg"
 width="980.000000pt" height="876.000000pt" viewBox="0 0 980.000000 876.000000"
 preserveAspectRatio="xMidYMid meet">

<g transform="translate(0.000000,876.000000) scale(0.100000,-0.100000)"
fill="#000000" stroke="none">
<path d="M660 8750 c-297 -39 -543 -259 -632 -567 l-23 -78 0 -2755 0 -2755
23 -78 c79 -274 277 -475 540 -550 l77 -22 1613 -3 1612 -3 0 -729 0 -729
-482 -3 c-473 -3 -484 -3 -523 -25 -86 -46 -129 -118 -129 -213 0 -101 49
-176 144 -219 32 -14 222 -16 2020 -16 1798 0 1988 2 2020 16 95 43 144 118
144 219 0 95 -43 167 -129 213 -39 22 -50 22 -522 25 l-483 3 0 729 0 729
1613 4 c1781 3 1653 -1 1801 66 210 95 365 282 433 521 17 62 18 176 18 2820
0 2644 -1 2758 -18 2820 -79 279 -271 479 -539 562 l-73 23 -4225 1 c-2324 1
-4250 -2 -4280 -6z m8492 -508 c55 -27 103 -78 132 -141 l21 -46 0 -2705 0
-2705 -21 -46 c-29 -63 -77 -114 -132 -141 l-47 -23 -4205 0 -4205 0 -47 23
c-55 27 -103 78 -132 141 l-21 46 -3 2675 c-2 1914 0 2690 8 2726 22 101 97
185 188 210 38 10 888 12 4232 11 l4185 -2 47 -23z m-3692 -7032 l0 -730 -560
0 -560 0 0 730 0 730 560 0 560 0 0 -730z"/>
<path d="M2865 6814 c-22 -8 -55 -29 -73 -47 -18 -17 -257 -312 -530 -654
-341 -427 -503 -638 -515 -670 -22 -57 -19 -124 9 -179 28 -55 976 -1269 1034
-1325 121 -115 312 -75 377 78 17 43 17 135 -2 179 -8 19 -213 289 -455 599
-271 348 -438 570 -434 577 4 7 203 257 442 556 238 299 440 559 448 578 20
47 17 141 -5 190 -48 106 -182 160 -296 118z"/>
<path d="M6775 6815 c-61 -21 -131 -102 -146 -169 -25 -113 -37 -94 461 -734
l448 -574 -436 -547 c-240 -300 -444 -561 -454 -580 -45 -88 -31 -183 38 -260
77 -85 191 -104 289 -47 33 20 157 168 551 662 279 350 516 653 526 673 24 47
24 143 -1 196 -15 32 -749 981 -988 1279 -85 105 -180 139 -288 101z"/>
<path d="M5315 6631 c-22 -10 -54 -34 -71 -52 -17 -19 -319 -524 -670 -1124
-634 -1081 -638 -1090 -642 -1151 -5 -77 10 -125 57 -177 47 -52 102 -77 171
-77 65 0 122 24 165 68 39 40 1294 2179 1313 2240 20 59 4 140 -37 197 -61 85
-192 120 -286 76z"/>
</g>
</svg>
